# This file uses centimeters as units for non-parametric coordinates.

mtllib CajaAbajo.mtl
g default
v -4.481757 3.256848 -5.204733
v -3.448022 3.256848 -5.295335
v -3.448022 3.702891 -5.295335
v -4.481757 3.702891 -5.204733
v -4.446596 3.702891 -5.235176
v -3.487943 3.702891 -5.319197
v -3.487943 3.376918 -5.319197
v -4.446596 3.376918 -5.235176
v -3.524048 3.670230 -5.731140
v -3.524048 3.634409 -5.731140
v -3.486507 3.634409 -5.734430
v -3.486507 3.670230 -5.734430
v -3.508040 3.634409 -5.548499
v -3.470499 3.634409 -5.551789
v -4.503369 3.702891 -5.882938
v -4.543290 3.702891 -5.906800
v -3.509555 3.702891 -5.997402
v -3.544716 3.702891 -5.966959
v -3.508040 3.670230 -5.548499
v -3.470499 3.670230 -5.551789
v -3.509555 3.256848 -5.997402
v -3.544716 3.376918 -5.966959
v -4.505086 3.621266 -5.470908
v -4.505086 3.657087 -5.470908
v -4.467545 3.657087 -5.474198
v -4.467545 3.621266 -5.474198
v -4.503369 3.376918 -5.882938
v -4.521093 3.657087 -5.653549
v -4.483552 3.657087 -5.656839
v -4.521093 3.621266 -5.653549
v -4.483552 3.621266 -5.656839
v -4.543290 3.256848 -5.906800
vt 0.375000 0.000000
vt 0.625000 0.000000
vt 0.625000 0.250000
vt 0.375000 0.250000
vt 0.375000 0.248425
vt 0.625000 0.248425
vt 0.625000 0.000000
vt 0.375000 0.000000
vt 0.509596 0.500000
vt 0.509596 0.750000
vt 0.591774 0.750000
vt 0.591774 0.500000
vt 0.509596 1.000000
vt 0.591774 1.000000
vt 0.615921 0.259669
vt 0.384079 0.259669
vt 0.384079 0.490331
vt 0.375000 0.500000
vt 0.625000 0.500000
vt 0.615921 0.490331
vt 0.509596 0.250000
vt 0.591774 0.250000
vt 0.509596 0.000000
vt 0.591774 0.000000
vt 0.875000 0.000000
vt 0.875000 0.250000
vt 0.781358 0.211617
vt 0.716321 0.211617
vt 0.713498 0.196235
vt 0.783987 0.196235
vt 0.875000 0.248425
vt 0.875000 0.000000
vt 0.783987 0.223534
vt 0.713498 0.223534
vt 0.716321 0.231694
vt 0.781358 0.231694
vt 0.426597 0.000000
vt 0.426597 0.250000
vt 0.508776 0.250000
vt 0.508776 0.000000
vt 0.375000 0.750000
vt 0.375000 1.000000
vt 0.625000 1.000000
vt 0.625000 0.750000
vt 0.426597 0.500000
vt 0.508776 0.500000
vt 0.426597 0.750000
vt 0.426597 1.000000
vt 0.508776 1.000000
vt 0.508776 0.750000
vt 0.375000 0.750000
vt 0.625000 0.750000
vt 0.625000 1.000000
vt 0.375000 1.000000
vt 0.625000 0.501575
vt 0.375000 0.501575
vt 0.282751 0.186218
vt 0.282751 0.213517
vt 0.212261 0.213517
vt 0.212261 0.186218
vt 0.125000 0.248425
vt 0.125000 0.250000
vt 0.215181 0.204251
vt 0.215181 0.224328
vt 0.280217 0.224328
vt 0.280217 0.204251
vt 0.125000 0.000000
vt 0.125000 0.000000
vn 0.087311 0.000000 0.996181
vn 0.087311 0.000000 0.996181
vn 0.087311 0.000000 0.996181
vn 0.087311 0.000000 0.996181
vn -0.087311 0.000000 -0.996181
vn -0.087311 0.000000 -0.996181
vn -0.087311 0.000000 -0.996181
vn -0.087311 0.000000 -0.996181
vn 0.087311 0.000000 0.996181
vn 0.087311 0.000000 0.996181
vn 0.087311 0.000000 0.996181
vn 0.087311 0.000000 0.996181
vn 0.000000 1.000000 0.000000
vn 0.000000 1.000000 0.000000
vn 0.000000 1.000000 0.000000
vn 0.000000 1.000000 0.000000
vn 0.000000 1.000000 0.000000
vn -0.000000 1.000000 -0.000000
vn 0.000000 1.000000 0.000000
vn -0.000000 1.000000 -0.000000
vn -0.000000 1.000000 -0.000000
vn 0.000000 1.000000 0.000000
vn 0.000000 1.000000 0.000000
vn 0.000000 1.000000 0.000000
vn 0.000000 -1.000000 0.000000
vn 0.000000 -1.000000 0.000000
vn 0.000000 -1.000000 0.000000
vn 0.000000 -1.000000 0.000000
vn -0.087311 0.000000 -0.996181
vn -0.087311 0.000000 -0.996181
vn -0.087311 0.000000 -0.996181
vn -0.087311 0.000000 -0.996181
vn 0.996181 0.000000 -0.087311
vn 0.996181 0.000000 -0.087311
vn 0.996181 0.000000 -0.087311
vn 0.996181 0.000000 -0.087311
vn 0.996181 0.000000 -0.087311
vn 0.996181 0.000000 -0.087311
vn -0.996181 -0.000000 0.087311
vn -0.996181 0.000000 0.087311
vn -0.996181 0.000000 0.087311
vn -0.996181 0.000000 0.087311
vn -0.996181 0.000000 0.087311
vn -0.996181 -0.000000 0.087311
vn -0.996181 -0.000002 0.087311
vn -0.996181 0.000000 0.087311
vn 0.996181 0.000000 -0.087311
vn 0.996181 0.000000 -0.087311
vn -0.087311 0.000000 -0.996181
vn -0.087311 0.000000 -0.996181
vn -0.087311 0.000000 -0.996181
vn -0.087311 0.000000 -0.996181
vn 0.000000 1.000000 0.000000
vn 0.000000 1.000000 0.000000
vn 0.000000 1.000000 0.000000
vn 0.000000 1.000000 0.000000
vn 0.000000 -1.000000 0.000000
vn 0.000000 -1.000000 0.000000
vn 0.000000 -1.000000 0.000000
vn 0.000000 -1.000000 0.000000
vn 0.000000 1.000000 0.000000
vn 0.000000 1.000000 0.000000
vn 0.000000 1.000000 0.000000
vn 0.000000 1.000000 0.000000
vn 0.000000 -1.000000 0.000000
vn 0.000000 -1.000000 0.000000
vn 0.000000 -1.000000 0.000000
vn 0.000000 -1.000000 0.000000
vn 0.087311 0.000000 0.996181
vn 0.087311 0.000000 0.996181
vn 0.087311 0.000000 0.996181
vn 0.087311 0.000000 0.996181
vn 0.087311 0.000000 0.996181
vn 0.087311 0.000000 0.996181
vn 0.087311 0.000000 0.996181
vn 0.087311 0.000000 0.996181
vn 0.996181 0.000000 -0.087311
vn 0.996181 -0.000000 -0.087311
vn 0.996181 -0.000001 -0.087311
vn 0.996181 -0.000000 -0.087311
vn 0.996181 0.000000 -0.087311
vn 0.996181 0.000000 -0.087311
vn -0.087311 0.000000 -0.996181
vn -0.087311 0.000000 -0.996181
vn -0.087311 0.000000 -0.996181
vn -0.087311 0.000000 -0.996181
vn -0.996181 0.000000 0.087311
vn -0.996181 0.000000 0.087311
vn -0.996181 0.000000 0.087311
vn -0.996181 0.000000 0.087311
vn -0.996181 0.000003 0.087311
vn -0.996181 -0.000000 0.087311
vn 0.996181 0.000000 -0.087311
vn 0.996181 0.000000 -0.087311
vn -0.996181 0.000000 0.087311
vn -0.996181 0.000000 0.087311
s 1
g Caja4:pCube6 pasted__pasted__pasted__group18 pasted__pasted__group19 pasted__group20 group29
usemtl Caja4:lambert2SG
f 1/1/1 2/2/2 4/4/3
f 4/4/3 2/2/2 3/3/4
s 2
f 5/5/5 6/6/6 8/8/7
f 8/8/7 6/6/6 7/7/8
s 3
f 9/9/9 10/10/10 12/12/11
f 12/12/11 10/10/10 11/11/12
s 4
f 10/10/13 13/13/14 11/11/15
f 11/11/15 13/13/14 14/14/16
s 5
f 16/18/17 4/4/18 15/17/19
f 15/17/19 4/4/18 5/16/20
f 4/4/18 3/3/21 5/16/20
f 3/3/21 6/15/22 5/16/20
f 3/3/21 17/19/23 6/15/22
f 6/15/22 17/19/23 18/20/24
f 17/19/23 16/18/17 18/20/24
f 16/18/17 15/17/19 18/20/24
s 6
f 19/21/25 9/9/26 20/22/27
f 20/22/27 9/9/26 12/12/28
s 7
f 13/23/29 19/21/30 14/24/31
f 14/24/31 19/21/30 20/22/32
s 8
f 17/26/33 11/27/34 21/25/35
f 21/25/35 11/27/34 2/2/36
f 11/27/34 14/28/37 2/2/36
f 2/2/36 14/28/37 3/3/38
s 9
f 6/6/39 13/29/40 7/7/41
f 7/7/41 13/29/40 22/32/42
f 13/29/40 10/30/43 22/32/42
f 10/30/43 18/31/44 22/32/42
f 10/30/43 9/33/45 18/31/44
f 18/31/44 9/33/45 6/6/39
f 9/33/45 19/34/46 6/6/39
f 6/6/39 19/34/46 13/29/40
s 8
f 14/28/37 20/35/47 3/3/38
f 3/3/38 20/35/47 17/26/33
f 20/35/47 12/36/48 17/26/33
f 12/36/48 11/27/34 17/26/33
s 10
f 23/37/49 24/38/50 26/40/51
f 26/40/51 24/38/50 25/39/52
s 11
f 27/41/53 8/42/54 22/44/55
f 22/44/55 8/42/54 7/43/56
s 12
f 24/38/57 28/45/58 25/39/59
f 25/39/59 28/45/58 29/46/60
s 13
f 30/47/61 23/48/62 31/50/63
f 31/50/63 23/48/62 26/49/64
s 14
f 32/51/65 21/52/66 1/54/67
f 1/54/67 21/52/66 2/53/68
s 15
f 18/55/69 15/56/70 22/44/71
f 22/44/71 15/56/70 27/41/72
s 16
f 28/45/73 30/47/74 29/46/75
f 29/46/75 30/47/74 31/50/76
s 17
f 31/60/77 15/61/78 29/59/79
f 15/61/78 5/5/80 29/59/79
f 29/59/79 5/5/80 25/58/81
f 26/57/82 25/58/81 5/5/80
s 18
f 16/18/83 17/19/84 32/51/85
f 32/51/85 17/19/84 21/52/86
s 19
f 30/63/87 28/64/88 16/62/89
f 16/62/89 28/64/88 4/4/90
f 28/64/88 24/65/91 4/4/90
f 4/4/90 24/65/91 23/66/92
s 17
f 15/61/78 31/60/77 27/67/93
f 27/67/93 31/60/77 8/8/94
f 31/60/77 26/57/82 8/8/94
f 26/57/82 5/5/80 8/8/94
s 19
f 16/62/89 32/68/95 30/63/87
f 32/68/95 1/1/96 30/63/87
f 30/63/87 1/1/96 23/66/92
f 1/1/96 4/4/90 23/66/92
g default
v -4.481757 3.256848 -5.204733
v -3.448022 3.256848 -5.295335
v -3.448022 3.702891 -5.295335
v -4.481757 3.702891 -5.204733
v -4.446596 3.702891 -5.235176
v -3.487943 3.702891 -5.319197
v -3.487943 3.376918 -5.319197
v -4.446596 3.376918 -5.235176
v -3.524048 3.670230 -5.731140
v -3.524048 3.634409 -5.731140
v -3.486507 3.634409 -5.734430
v -3.486507 3.670230 -5.734430
v -3.508040 3.634409 -5.548499
v -3.470499 3.634409 -5.551789
v -4.503369 3.702891 -5.882938
v -4.543290 3.702891 -5.906800
v -3.509555 3.702891 -5.997402
v -3.544716 3.702891 -5.966959
v -3.508040 3.670230 -5.548499
v -3.470499 3.670230 -5.551789
v -3.509555 3.256848 -5.997402
v -3.544716 3.376918 -5.966959
v -4.505086 3.621266 -5.470908
v -4.505086 3.657087 -5.470908
v -4.467545 3.657087 -5.474198
v -4.467545 3.621266 -5.474198
v -4.503369 3.376918 -5.882938
v -4.521093 3.657087 -5.653549
v -4.483552 3.657087 -5.656839
v -4.521093 3.621266 -5.653549
v -4.483552 3.621266 -5.656839
v -4.543290 3.256848 -5.906800
vt 0.375000 0.000000
vt 0.625000 0.000000
vt 0.625000 0.250000
vt 0.375000 0.250000
vt 0.375000 0.248425
vt 0.625000 0.248425
vt 0.625000 0.000000
vt 0.375000 0.000000
vt 0.509596 0.500000
vt 0.509596 0.750000
vt 0.591774 0.750000
vt 0.591774 0.500000
vt 0.509596 1.000000
vt 0.591774 1.000000
vt 0.615921 0.259669
vt 0.384079 0.259669
vt 0.384079 0.490331
vt 0.375000 0.500000
vt 0.625000 0.500000
vt 0.615921 0.490331
vt 0.509596 0.250000
vt 0.591774 0.250000
vt 0.509596 0.000000
vt 0.591774 0.000000
vt 0.875000 0.000000
vt 0.875000 0.250000
vt 0.781358 0.211617
vt 0.716321 0.211617
vt 0.713498 0.196235
vt 0.783987 0.196235
vt 0.875000 0.248425
vt 0.875000 0.000000
vt 0.783987 0.223534
vt 0.713498 0.223534
vt 0.716321 0.231694
vt 0.781358 0.231694
vt 0.426597 0.000000
vt 0.426597 0.250000
vt 0.508776 0.250000
vt 0.508776 0.000000
vt 0.375000 0.750000
vt 0.375000 1.000000
vt 0.625000 1.000000
vt 0.625000 0.750000
vt 0.426597 0.500000
vt 0.508776 0.500000
vt 0.426597 0.750000
vt 0.426597 1.000000
vt 0.508776 1.000000
vt 0.508776 0.750000
vt 0.375000 0.750000
vt 0.625000 0.750000
vt 0.625000 1.000000
vt 0.375000 1.000000
vt 0.625000 0.501575
vt 0.375000 0.501575
vt 0.282751 0.186218
vt 0.282751 0.213517
vt 0.212261 0.213517
vt 0.212261 0.186218
vt 0.125000 0.248425
vt 0.125000 0.250000
vt 0.215181 0.204251
vt 0.215181 0.224328
vt 0.280217 0.224328
vt 0.280217 0.204251
vt 0.125000 0.000000
vt 0.125000 0.000000
vn 0.087311 0.000000 0.996181
vn 0.087311 0.000000 0.996181
vn 0.087311 0.000000 0.996181
vn 0.087311 0.000000 0.996181
vn -0.087311 0.000000 -0.996181
vn -0.087311 0.000000 -0.996181
vn -0.087311 0.000000 -0.996181
vn -0.087311 0.000000 -0.996181
vn 0.087311 0.000000 0.996181
vn 0.087311 0.000000 0.996181
vn 0.087311 0.000000 0.996181
vn 0.087311 0.000000 0.996181
vn 0.000000 1.000000 0.000000
vn 0.000000 1.000000 0.000000
vn 0.000000 1.000000 0.000000
vn 0.000000 1.000000 0.000000
vn 0.000000 1.000000 0.000000
vn -0.000000 1.000000 -0.000000
vn 0.000000 1.000000 0.000000
vn -0.000000 1.000000 -0.000000
vn -0.000000 1.000000 -0.000000
vn 0.000000 1.000000 0.000000
vn 0.000000 1.000000 0.000000
vn 0.000000 1.000000 0.000000
vn 0.000000 -1.000000 0.000000
vn 0.000000 -1.000000 0.000000
vn 0.000000 -1.000000 0.000000
vn 0.000000 -1.000000 0.000000
vn -0.087311 0.000000 -0.996181
vn -0.087311 0.000000 -0.996181
vn -0.087311 0.000000 -0.996181
vn -0.087311 0.000000 -0.996181
vn 0.996181 0.000000 -0.087311
vn 0.996181 0.000000 -0.087311
vn 0.996181 0.000000 -0.087311
vn 0.996181 0.000000 -0.087311
vn 0.996181 0.000000 -0.087311
vn 0.996181 0.000000 -0.087311
vn -0.996181 -0.000000 0.087311
vn -0.996181 0.000000 0.087311
vn -0.996181 0.000000 0.087311
vn -0.996181 0.000000 0.087311
vn -0.996181 0.000000 0.087311
vn -0.996181 -0.000000 0.087311
vn -0.996181 -0.000002 0.087311
vn -0.996181 0.000000 0.087311
vn 0.996181 0.000000 -0.087311
vn 0.996181 0.000000 -0.087311
vn -0.087311 0.000000 -0.996181
vn -0.087311 0.000000 -0.996181
vn -0.087311 0.000000 -0.996181
vn -0.087311 0.000000 -0.996181
vn 0.000000 1.000000 0.000000
vn 0.000000 1.000000 0.000000
vn 0.000000 1.000000 0.000000
vn 0.000000 1.000000 0.000000
vn 0.000000 -1.000000 0.000000
vn 0.000000 -1.000000 0.000000
vn 0.000000 -1.000000 0.000000
vn 0.000000 -1.000000 0.000000
vn 0.000000 1.000000 0.000000
vn 0.000000 1.000000 0.000000
vn 0.000000 1.000000 0.000000
vn 0.000000 1.000000 0.000000
vn 0.000000 -1.000000 0.000000
vn 0.000000 -1.000000 0.000000
vn 0.000000 -1.000000 0.000000
vn 0.000000 -1.000000 0.000000
vn 0.087311 0.000000 0.996181
vn 0.087311 0.000000 0.996181
vn 0.087311 0.000000 0.996181
vn 0.087311 0.000000 0.996181
vn 0.087311 0.000000 0.996181
vn 0.087311 0.000000 0.996181
vn 0.087311 0.000000 0.996181
vn 0.087311 0.000000 0.996181
vn 0.996181 0.000000 -0.087311
vn 0.996181 -0.000000 -0.087311
vn 0.996181 -0.000001 -0.087311
vn 0.996181 -0.000000 -0.087311
vn 0.996181 0.000000 -0.087311
vn 0.996181 0.000000 -0.087311
vn -0.087311 0.000000 -0.996181
vn -0.087311 0.000000 -0.996181
vn -0.087311 0.000000 -0.996181
vn -0.087311 0.000000 -0.996181
vn -0.996181 0.000000 0.087311
vn -0.996181 0.000000 0.087311
vn -0.996181 0.000000 0.087311
vn -0.996181 0.000000 0.087311
vn -0.996181 0.000003 0.087311
vn -0.996181 -0.000000 0.087311
vn 0.996181 0.000000 -0.087311
vn 0.996181 0.000000 -0.087311
vn -0.996181 0.000000 0.087311
vn -0.996181 0.000000 0.087311
s 1
g Caja4:pCube6 pasted__pasted__pasted__group18 pasted__pasted__group19 pasted__group20 group29
f 33/69/97 34/70/98 36/72/99
f 36/72/99 34/70/98 35/71/100
s 2
f 37/73/101 38/74/102 40/76/103
f 40/76/103 38/74/102 39/75/104
s 3
f 41/77/105 42/78/106 44/80/107
f 44/80/107 42/78/106 43/79/108
s 4
f 42/78/109 45/81/110 43/79/111
f 43/79/111 45/81/110 46/82/112
s 5
f 48/86/113 36/72/114 47/85/115
f 47/85/115 36/72/114 37/84/116
f 36/72/114 35/71/117 37/84/116
f 35/71/117 38/83/118 37/84/116
f 35/71/117 49/87/119 38/83/118
f 38/83/118 49/87/119 50/88/120
f 49/87/119 48/86/113 50/88/120
f 48/86/113 47/85/115 50/88/120
s 6
f 51/89/121 41/77/122 52/90/123
f 52/90/123 41/77/122 44/80/124
s 7
f 45/91/125 51/89/126 46/92/127
f 46/92/127 51/89/126 52/90/128
s 8
f 49/94/129 43/95/130 53/93/131
f 53/93/131 43/95/130 34/70/132
f 43/95/130 46/96/133 34/70/132
f 34/70/132 46/96/133 35/71/134
s 9
f 38/74/135 45/97/136 39/75/137
f 39/75/137 45/97/136 54/100/138
f 45/97/136 42/98/139 54/100/138
f 42/98/139 50/99/140 54/100/138
f 42/98/139 41/101/141 50/99/140
f 50/99/140 41/101/141 38/74/135
f 41/101/141 51/102/142 38/74/135
f 38/74/135 51/102/142 45/97/136
s 8
f 46/96/133 52/103/143 35/71/134
f 35/71/134 52/103/143 49/94/129
f 52/103/143 44/104/144 49/94/129
f 44/104/144 43/95/130 49/94/129
s 10
f 55/105/145 56/106/146 58/108/147
f 58/108/147 56/106/146 57/107/148
s 11
f 59/109/149 40/110/150 54/112/151
f 54/112/151 40/110/150 39/111/152
s 12
f 56/106/153 60/113/154 57/107/155
f 57/107/155 60/113/154 61/114/156
s 13
f 62/115/157 55/116/158 63/118/159
f 63/118/159 55/116/158 58/117/160
s 14
f 64/119/161 53/120/162 33/122/163
f 33/122/163 53/120/162 34/121/164
s 15
f 50/123/165 47/124/166 54/112/167
f 54/112/167 47/124/166 59/109/168
s 16
f 60/113/169 62/115/170 61/114/171
f 61/114/171 62/115/170 63/118/172
s 17
f 63/128/173 47/129/174 61/127/175
f 47/129/174 37/73/176 61/127/175
f 61/127/175 37/73/176 57/126/177
f 58/125/178 57/126/177 37/73/176
s 18
f 48/86/179 49/87/180 64/119/181
f 64/119/181 49/87/180 53/120/182
s 19
f 62/131/183 60/132/184 48/130/185
f 48/130/185 60/132/184 36/72/186
f 60/132/184 56/133/187 36/72/186
f 36/72/186 56/133/187 55/134/188
s 17
f 47/129/174 63/128/173 59/135/189
f 59/135/189 63/128/173 40/76/190
f 63/128/173 58/125/178 40/76/190
f 58/125/178 37/73/176 40/76/190
s 19
f 48/130/185 64/136/191 62/131/183
f 64/136/191 33/69/192 62/131/183
f 62/131/183 33/69/192 55/134/188
f 33/69/192 36/72/186 55/134/188
