# This file uses centimeters as units for non-parametric coordinates.

mtllib Librero.mtl
g default
v -4.489242 3.850505 -6.271309
v -4.489242 3.207716 -6.271309
v -3.252401 3.850505 -6.388717
v -3.252401 3.207716 -6.388717
v -4.470566 3.850505 -2.607357
v -4.470566 3.207716 -2.607357
v -3.233725 3.850505 -2.724765
v -3.233725 3.207716 -2.724765
v -4.417294 3.813676 -6.172318
v -4.417294 3.244544 -6.172318
v -3.251740 3.805401 -6.259181
v -3.251740 3.252820 -6.259181
v -4.399696 3.813676 -2.719905
v -4.399696 3.244544 -2.719905
v -3.234385 3.805401 -2.854301
v -3.234385 3.252820 -2.854301
v -4.489242 4.493295 -6.271309
v -4.489242 3.850505 -6.271309
v -3.252401 4.493295 -6.388717
v -3.252401 3.850505 -6.388717
v -4.470566 4.493295 -2.607357
v -4.470566 3.850505 -2.607357
v -3.233725 4.493295 -2.724765
v -3.233725 3.850505 -2.724765
v -4.417294 4.456466 -6.172318
v -4.417294 3.887334 -6.172318
v -3.251740 4.448191 -6.259181
v -3.251740 3.895609 -6.259181
v -4.399696 4.456466 -2.719905
v -4.399696 3.887334 -2.719905
v -3.234385 4.448191 -2.854301
v -3.234385 3.895609 -2.854301
vt 0.398675 0.760612
vt 0.161390 0.760868
vt 0.161262 0.642225
vt 0.398547 0.641969
vt 0.161519 0.880421
vt 0.398804 0.880165
vt 0.398933 0.998808
vt 0.161647 0.999064
vt 0.398675 0.760612
vt 0.398547 0.641969
vt 0.161262 0.642225
vt 0.161390 0.760868
vt 0.161519 0.880421
vt 0.161647 0.999064
vt 0.398933 0.998808
vt 0.398804 0.880165
vt 0.398675 0.760612
vt 0.161390 0.760868
vt 0.161262 0.642225
vt 0.398547 0.641969
vt 0.161519 0.880421
vt 0.398804 0.880165
vt 0.398933 0.998808
vt 0.161647 0.999064
vt 0.398675 0.760612
vt 0.398547 0.641969
vt 0.161262 0.642225
vt 0.161390 0.760868
vt 0.161519 0.880421
vt 0.161647 0.999064
vt 0.398933 0.998808
vt 0.398804 0.880165
vn 0.000000 1.000000 -0.000000
vn 0.000000 1.000000 -0.000000
vn 0.000000 1.000000 -0.000000
vn 0.000000 1.000000 -0.000000
vn 0.000000 -1.000000 0.000000
vn 0.000000 -1.000000 0.000000
vn 0.000000 -1.000000 0.000000
vn 0.000000 -1.000000 0.000000
vn -0.999987 0.000000 0.005097
vn -0.999987 0.000000 0.005097
vn -0.999987 0.000000 0.005097
vn -0.999987 0.000000 0.005097
vn -0.007114 -0.999975 0.000036
vn -0.007114 -0.999975 0.000036
vn -0.007114 -0.999975 0.000036
vn -0.007114 -0.999975 0.000036
vn -0.007114 0.999975 0.000036
vn -0.007114 0.999975 0.000036
vn -0.007114 0.999975 0.000036
vn -0.007114 0.999975 0.000036
vn 0.999987 0.000000 -0.005097
vn 0.999987 0.000000 -0.005097
vn 0.999987 0.000000 -0.005097
vn 0.999987 0.000000 -0.005097
vn 0.999987 0.000000 -0.005097
vn 0.999987 0.000000 -0.005097
vn 0.999987 0.000000 -0.005097
vn 0.999987 0.000000 -0.005097
vn 0.999987 0.000000 -0.005097
vn 0.999987 0.000000 -0.005097
vn 0.999987 0.000000 -0.005097
vn 0.999987 0.000000 -0.005097
vn 0.000000 1.000000 -0.000000
vn 0.000000 1.000000 -0.000000
vn 0.000000 1.000000 -0.000000
vn 0.000000 1.000000 -0.000000
vn 0.000000 -1.000000 0.000000
vn 0.000000 -1.000000 0.000000
vn 0.000000 -1.000000 0.000000
vn 0.000000 -1.000000 0.000000
vn -0.999987 0.000000 0.005097
vn -0.999987 0.000000 0.005097
vn -0.999987 0.000000 0.005097
vn -0.999987 0.000000 0.005097
vn -0.007114 -0.999975 0.000036
vn -0.007114 -0.999975 0.000036
vn -0.007114 -0.999975 0.000036
vn -0.007114 -0.999975 0.000036
vn -0.007114 0.999975 0.000036
vn -0.007114 0.999975 0.000036
vn -0.007114 0.999975 0.000036
vn -0.007114 0.999975 0.000036
vn 0.999987 0.000000 -0.005097
vn 0.999987 0.000000 -0.005097
vn 0.999987 0.000000 -0.005097
vn 0.999987 0.000000 -0.005097
vn 0.999987 0.000000 -0.005097
vn 0.999987 0.000000 -0.005097
vn 0.999987 0.000000 -0.005097
vn 0.999987 0.000000 -0.005097
vn 0.999987 0.000000 -0.005097
vn 0.999987 0.000000 -0.005097
vn 0.999987 0.000000 -0.005097
vn 0.999987 0.000000 -0.005097
vn 0.031186 0.943977 0.328533
vn 0.427611 0.744402 0.512850
vn 0.031186 0.943977 0.328533
vn 0.433296 0.739692 0.514889
vn 0.403369 -0.763776 0.503925
vn 0.395946 -0.769484 0.501119
vn 0.031186 -0.943977 0.328533
vn 0.031186 -0.943977 0.328533
vn 0.031186 -0.943977 0.328534
vn 0.031186 -0.943977 0.328534
vn 0.427611 -0.744401 0.512851
vn 0.433295 -0.739692 0.514889
vn 0.403369 0.763775 0.503926
vn 0.395947 0.769484 0.501120
vn 0.031186 0.943977 0.328533
vn 0.031186 0.943977 0.328533
vn -0.031186 -0.943977 -0.328533
vn 0.342079 -0.771932 -0.535820
vn -0.031186 -0.943977 -0.328533
vn 0.347811 -0.767584 -0.538369
vn 0.317786 0.789699 -0.524774
vn 0.310395 0.794898 -0.521337
vn -0.031186 0.943977 -0.328533
vn -0.031186 0.943977 -0.328533
vn -0.031186 0.943977 -0.328533
vn -0.031186 0.943977 -0.328533
vn 0.342079 0.771931 -0.535821
vn 0.347811 0.767584 -0.538370
vn 0.317785 -0.789698 -0.524775
vn 0.310395 -0.794897 -0.521338
vn -0.031186 -0.943977 -0.328534
vn -0.031186 -0.943977 -0.328534
s 1
g Cuarto:Librero:estante1:Mesh Cuarto:Librero:pasted__group Cuarto:Librero:group
usemtl Cuarto:Librero:estante1:lambert2SG
f 1/1/1 5/2/2 3/4/3
f 3/4/3 5/2/2 7/3/4
s 2
f 6/5/5 2/6/6 8/8/7
f 8/8/7 2/6/6 4/7/8
s 3
f 6/5/9 5/2/10 2/6/11
f 2/6/11 5/2/10 1/1/12
s 4
f 9/9/13 11/10/14 13/12/15
f 13/12/15 11/10/14 15/11/16
s 5
f 14/13/17 16/14/18 10/16/19
f 10/16/19 16/14/18 12/15/20
s 6
f 14/13/21 10/16/22 13/12/23
f 13/12/23 10/16/22 9/9/24
s 7
f 3/4/25 7/3/26 11/10/27
f 11/10/27 7/3/26 15/11/28
s 8
f 8/8/29 4/7/30 16/14/31
f 16/14/31 4/7/30 12/15/32
s 9
f 17/17/33 21/18/34 19/20/35
f 19/20/35 21/18/34 23/19/36
s 10
f 22/21/37 18/22/38 24/24/39
f 24/24/39 18/22/38 20/23/40
s 11
f 22/21/41 21/18/42 18/22/43
f 18/22/43 21/18/42 17/17/44
s 12
f 25/25/45 27/26/46 29/28/47
f 29/28/47 27/26/46 31/27/48
s 13
f 30/29/49 32/30/50 26/32/51
f 26/32/51 32/30/50 28/31/52
s 14
f 30/29/53 26/32/54 29/28/55
f 29/28/55 26/32/54 25/25/56
s 15
f 19/20/57 23/19/58 27/26/59
f 27/26/59 23/19/58 31/27/60
s 16
f 24/24/61 20/23/62 32/30/63
f 32/30/63 20/23/62 28/31/64
s 17
f 16/14/65 14/13/66 8/8/67
f 8/8/67 14/13/66 6/5/68
f 6/5/68 14/13/66 5/2/69
f 14/13/66 13/12/70 5/2/69
f 5/2/69 13/12/70 7/3/71
f 7/3/71 13/12/70 15/11/72
s 18
f 31/27/73 23/19/74 29/28/75
f 23/19/74 21/18/76 29/28/75
f 21/18/76 22/21/77 29/28/75
f 29/28/75 22/21/77 30/29/78
f 22/21/77 24/24/79 30/29/78
f 30/29/78 24/24/79 32/30/80
s 19
f 11/10/81 9/9/82 3/4/83
f 3/4/83 9/9/82 1/1/84
f 1/1/84 9/9/82 2/6/85
f 9/9/82 10/16/86 2/6/85
f 2/6/85 10/16/86 4/7/87
f 4/7/87 10/16/86 12/15/88
s 20
f 28/31/89 20/23/90 26/32/91
f 20/23/90 18/22/92 26/32/91
f 18/22/92 17/17/93 26/32/91
f 26/32/91 17/17/93 25/25/94
f 17/17/93 19/20/95 25/25/94
f 19/20/95 27/26/96 25/25/94
