# This file uses centimeters as units for non-parametric coordinates.

mtllib estante.mtl
g default
v 0.511602 -0.296862 -0.213086
v 0.511602 -0.836563 -0.213086
v 0.511602 -0.296862 0.322502
v 0.511602 -0.836563 0.322502
v -0.559576 -0.296862 -0.213086
v -0.559576 -0.836563 -0.213086
v -0.559576 -0.296862 0.322502
v -0.559576 -0.836563 0.322502
v 0.480679 -0.327785 -0.182164
v 0.480679 -0.805641 -0.182164
v 0.473731 -0.334733 0.322502
v 0.473731 -0.798692 0.322502
v -0.528653 -0.327785 -0.182164
v -0.528653 -0.805641 -0.182164
v -0.521705 -0.334733 0.322502
v -0.521705 -0.798692 0.322502
v 0.511602 0.242838 -0.213086
v 0.511602 -0.296862 -0.213086
v 0.511602 0.242838 0.322502
v 0.511602 -0.296862 0.322502
v -0.559576 0.242838 -0.213086
v -0.559576 -0.296862 -0.213086
v -0.559576 0.242838 0.322502
v -0.559576 -0.296862 0.322502
v 0.480679 0.211916 -0.182164
v 0.480679 -0.265940 -0.182164
v 0.473731 0.204967 0.322502
v 0.473731 -0.258992 0.322502
v -0.528653 0.211916 -0.182164
v -0.528653 -0.265940 -0.182164
v -0.521705 0.204967 0.322502
v -0.521705 -0.258992 0.322502
v 0.511602 0.782538 -0.213086
v 0.511602 0.242838 -0.213086
v 0.511602 0.782538 0.322502
v 0.511602 0.242838 0.322502
v -0.559576 0.782538 -0.213086
v -0.559576 0.242838 -0.213086
v -0.559576 0.782538 0.322502
v -0.559576 0.242838 0.322502
v 0.480679 0.751616 -0.182164
v 0.480679 0.273760 -0.182164
v 0.473731 0.744668 0.322502
v 0.473731 0.280708 0.322502
v -0.528653 0.751616 -0.182164
v -0.528653 0.273760 -0.182164
v -0.521705 0.744668 0.322502
v -0.521705 0.280708 0.322502
v 0.511602 1.322239 -0.213086
v 0.511602 0.782538 -0.213086
v 0.511602 1.322239 0.322502
v 0.511602 0.782538 0.322502
v -0.559576 1.322239 -0.213086
v -0.559576 0.782538 -0.213086
v -0.559576 1.322239 0.322502
v -0.559576 0.782538 0.322502
v 0.480679 1.291316 -0.182164
v 0.480679 0.813460 -0.182164
v 0.473731 1.284368 0.322502
v 0.473731 0.820409 0.322502
v -0.528653 1.291316 -0.182164
v -0.528653 0.813460 -0.182164
v -0.521705 1.284368 0.322502
v -0.521705 0.820409 0.322502
vt 0.398675 0.760612
vt 0.161390 0.760868
vt 0.161262 0.642225
vt 0.398547 0.641969
vt 0.042877 0.880550
vt 0.042748 0.760996
vt 0.161519 0.880421
vt 0.398804 0.880165
vt 0.398933 0.998808
vt 0.161647 0.999064
vt 0.517318 0.760484
vt 0.517447 0.880037
vt 0.398675 0.760612
vt 0.398547 0.641969
vt 0.161262 0.642225
vt 0.161390 0.760868
vt 0.042877 0.880550
vt 0.161519 0.880421
vt 0.042748 0.760996
vt 0.161647 0.999064
vt 0.398933 0.998808
vt 0.398804 0.880165
vt 0.517447 0.880037
vt 0.517318 0.760484
vt 0.398675 0.760612
vt 0.161390 0.760868
vt 0.161262 0.642225
vt 0.398547 0.641969
vt 0.042877 0.880550
vt 0.042748 0.760996
vt 0.161519 0.880421
vt 0.398804 0.880165
vt 0.398933 0.998808
vt 0.161647 0.999064
vt 0.517318 0.760484
vt 0.517447 0.880037
vt 0.398675 0.760612
vt 0.398547 0.641969
vt 0.161262 0.642225
vt 0.161390 0.760868
vt 0.042877 0.880550
vt 0.161519 0.880421
vt 0.042748 0.760996
vt 0.161647 0.999064
vt 0.398933 0.998808
vt 0.398804 0.880165
vt 0.517447 0.880037
vt 0.517318 0.760484
vt 0.398675 0.760612
vt 0.161390 0.760868
vt 0.161262 0.642225
vt 0.398547 0.641969
vt 0.042877 0.880550
vt 0.042748 0.760996
vt 0.161519 0.880421
vt 0.398804 0.880165
vt 0.398933 0.998808
vt 0.161647 0.999064
vt 0.517318 0.760484
vt 0.517447 0.880037
vt 0.398675 0.760612
vt 0.398547 0.641969
vt 0.161262 0.642225
vt 0.161390 0.760868
vt 0.042877 0.880550
vt 0.161519 0.880421
vt 0.042748 0.760996
vt 0.161647 0.999064
vt 0.398933 0.998808
vt 0.398804 0.880165
vt 0.517447 0.880037
vt 0.517318 0.760484
vt 0.398675 0.760612
vt 0.161390 0.760868
vt 0.161262 0.642225
vt 0.398547 0.641969
vt 0.042877 0.880550
vt 0.042748 0.760996
vt 0.161519 0.880421
vt 0.398804 0.880165
vt 0.398933 0.998808
vt 0.161647 0.999064
vt 0.517318 0.760484
vt 0.517447 0.880037
vt 0.398675 0.760612
vt 0.398547 0.641969
vt 0.161262 0.642225
vt 0.161390 0.760868
vt 0.042877 0.880550
vt 0.161519 0.880421
vt 0.042748 0.760996
vt 0.161647 0.999064
vt 0.398933 0.998808
vt 0.398804 0.880165
vt 0.517447 0.880037
vt 0.517318 0.760484
vn 0.000000 1.000000 0.000000
vn 0.000000 1.000000 0.000000
vn 0.000000 1.000000 0.000000
vn 0.000000 1.000000 0.000000
vn -1.000000 0.000000 0.000000
vn -1.000000 0.000000 0.000000
vn -1.000000 0.000000 0.000000
vn -1.000000 0.000000 0.000000
vn 0.000000 -1.000000 0.000000
vn 0.000000 -1.000000 0.000000
vn 0.000000 -1.000000 0.000000
vn 0.000000 -1.000000 0.000000
vn 1.000000 0.000000 0.000000
vn 1.000000 0.000000 0.000000
vn 1.000000 0.000000 0.000000
vn 1.000000 0.000000 0.000000
vn 0.000000 0.000000 -1.000000
vn 0.000000 0.000000 -1.000000
vn 0.000000 0.000000 -1.000000
vn 0.000000 0.000000 -1.000000
vn 0.000000 -0.999905 -0.013800
vn 0.000000 -0.999905 -0.013800
vn 0.000000 -0.999905 -0.013800
vn 0.000000 -0.999905 -0.013800
vn 0.999905 0.000000 -0.013800
vn 0.999905 0.000000 -0.013800
vn 0.999905 0.000000 -0.013800
vn 0.999905 0.000000 -0.013800
vn 0.000000 0.999905 -0.013800
vn 0.000000 0.999905 -0.013800
vn 0.000000 0.999905 -0.013800
vn 0.000000 0.999905 -0.013800
vn -0.999905 0.000000 -0.013800
vn -0.999905 0.000000 -0.013800
vn -0.999905 0.000000 -0.013800
vn -0.999905 0.000000 -0.013800
vn 0.000000 0.000000 1.000000
vn 0.000000 0.000000 1.000000
vn 0.000000 0.000000 1.000000
vn 0.000000 0.000000 1.000000
vn 0.000000 0.000000 1.000000
vn 0.000000 0.000000 1.000000
vn 0.000000 0.000000 1.000000
vn 0.000000 0.000000 1.000000
vn 0.000000 0.000000 1.000000
vn 0.000000 0.000000 1.000000
vn 0.000000 0.000000 1.000000
vn 0.000000 0.000000 1.000000
vn 0.000000 0.000000 1.000000
vn 0.000000 0.000000 1.000000
vn 0.000000 0.000000 1.000000
vn 0.000000 0.000000 1.000000
vn 0.000000 0.000000 1.000000
vn 0.000000 0.000000 1.000000
vn 0.000000 0.000000 1.000000
vn 0.000000 0.000000 1.000000
vn 0.000000 1.000000 0.000000
vn 0.000000 1.000000 0.000000
vn 0.000000 1.000000 0.000000
vn 0.000000 1.000000 0.000000
vn -1.000000 0.000000 0.000000
vn -1.000000 0.000000 0.000000
vn -1.000000 0.000000 0.000000
vn -1.000000 0.000000 0.000000
vn 0.000000 -1.000000 0.000000
vn 0.000000 -1.000000 0.000000
vn 0.000000 -1.000000 0.000000
vn 0.000000 -1.000000 0.000000
vn 1.000000 0.000000 0.000000
vn 1.000000 0.000000 0.000000
vn 1.000000 0.000000 0.000000
vn 1.000000 0.000000 0.000000
vn 0.000000 0.000000 -1.000000
vn 0.000000 0.000000 -1.000000
vn 0.000000 0.000000 -1.000000
vn 0.000000 0.000000 -1.000000
vn 0.000000 -0.999905 -0.013800
vn 0.000000 -0.999905 -0.013800
vn 0.000000 -0.999905 -0.013800
vn 0.000000 -0.999905 -0.013800
vn 0.999905 0.000000 -0.013800
vn 0.999905 0.000000 -0.013800
vn 0.999905 0.000000 -0.013800
vn 0.999905 0.000000 -0.013800
vn 0.000000 0.999905 -0.013800
vn 0.000000 0.999905 -0.013800
vn 0.000000 0.999905 -0.013800
vn 0.000000 0.999905 -0.013800
vn -0.999905 0.000000 -0.013800
vn -0.999905 0.000000 -0.013800
vn -0.999905 0.000000 -0.013800
vn -0.999905 0.000000 -0.013800
vn 0.000000 0.000000 1.000000
vn 0.000000 0.000000 1.000000
vn 0.000000 0.000000 1.000000
vn 0.000000 0.000000 1.000000
vn 0.000000 0.000000 1.000000
vn 0.000000 0.000000 1.000000
vn 0.000000 0.000000 1.000000
vn 0.000000 0.000000 1.000000
vn 0.000000 0.000000 1.000000
vn 0.000000 0.000000 1.000000
vn 0.000000 0.000000 1.000000
vn 0.000000 0.000000 1.000000
vn 0.000000 0.000000 1.000000
vn 0.000000 0.000000 1.000000
vn 0.000000 0.000000 1.000000
vn 0.000000 0.000000 1.000000
vn 0.000000 0.000000 1.000000
vn 0.000000 0.000000 1.000000
vn 0.000000 0.000000 1.000000
vn 0.000000 0.000000 1.000000
vn 0.000000 1.000000 0.000000
vn 0.000000 1.000000 0.000000
vn 0.000000 1.000000 0.000000
vn 0.000000 1.000000 0.000000
vn -1.000000 0.000000 0.000000
vn -1.000000 0.000000 0.000000
vn -1.000000 0.000000 0.000000
vn -1.000000 0.000000 0.000000
vn 0.000000 -1.000000 0.000000
vn 0.000000 -1.000000 0.000000
vn 0.000000 -1.000000 0.000000
vn 0.000000 -1.000000 0.000000
vn 1.000000 0.000000 0.000000
vn 1.000000 0.000000 0.000000
vn 1.000000 0.000000 0.000000
vn 1.000000 0.000000 0.000000
vn 0.000000 0.000000 -1.000000
vn 0.000000 0.000000 -1.000000
vn 0.000000 0.000000 -1.000000
vn 0.000000 0.000000 -1.000000
vn 0.000000 -0.999905 -0.013800
vn 0.000000 -0.999905 -0.013800
vn 0.000000 -0.999905 -0.013800
vn 0.000000 -0.999905 -0.013800
vn 0.999905 0.000000 -0.013800
vn 0.999905 0.000000 -0.013800
vn 0.999905 0.000000 -0.013800
vn 0.999905 0.000000 -0.013800
vn 0.000000 0.999905 -0.013800
vn 0.000000 0.999905 -0.013800
vn 0.000000 0.999905 -0.013800
vn 0.000000 0.999905 -0.013800
vn -0.999905 0.000000 -0.013800
vn -0.999905 0.000000 -0.013800
vn -0.999905 0.000000 -0.013800
vn -0.999905 0.000000 -0.013800
vn 0.000000 0.000000 1.000000
vn 0.000000 0.000000 1.000000
vn 0.000000 0.000000 1.000000
vn 0.000000 0.000000 1.000000
vn 0.000000 0.000000 1.000000
vn 0.000000 0.000000 1.000000
vn 0.000000 0.000000 1.000000
vn 0.000000 0.000000 1.000000
vn 0.000000 0.000000 1.000000
vn 0.000000 0.000000 1.000000
vn 0.000000 0.000000 1.000000
vn 0.000000 0.000000 1.000000
vn 0.000000 0.000000 1.000000
vn 0.000000 0.000000 1.000000
vn 0.000000 0.000000 1.000000
vn 0.000000 0.000000 1.000000
vn 0.000000 0.000000 1.000000
vn 0.000000 0.000000 1.000000
vn 0.000000 0.000000 1.000000
vn 0.000000 0.000000 1.000000
vn 0.000000 1.000000 0.000000
vn 0.000000 1.000000 0.000000
vn 0.000000 1.000000 0.000000
vn 0.000000 1.000000 0.000000
vn -1.000000 0.000000 0.000000
vn -1.000000 0.000000 0.000000
vn -1.000000 0.000000 0.000000
vn -1.000000 0.000000 0.000000
vn 0.000000 -1.000000 0.000000
vn 0.000000 -1.000000 0.000000
vn 0.000000 -1.000000 0.000000
vn 0.000000 -1.000000 0.000000
vn 1.000000 0.000000 0.000000
vn 1.000000 0.000000 0.000000
vn 1.000000 0.000000 0.000000
vn 1.000000 0.000000 0.000000
vn 0.000000 0.000000 -1.000000
vn 0.000000 0.000000 -1.000000
vn 0.000000 0.000000 -1.000000
vn 0.000000 0.000000 -1.000000
vn 0.000000 -0.999905 -0.013800
vn 0.000000 -0.999905 -0.013800
vn 0.000000 -0.999905 -0.013800
vn 0.000000 -0.999905 -0.013800
vn 0.999905 0.000000 -0.013800
vn 0.999905 0.000000 -0.013800
vn 0.999905 0.000000 -0.013800
vn 0.999905 0.000000 -0.013800
vn 0.000000 0.999905 -0.013800
vn 0.000000 0.999905 -0.013800
vn 0.000000 0.999905 -0.013800
vn 0.000000 0.999905 -0.013800
vn -0.999905 0.000000 -0.013800
vn -0.999905 0.000000 -0.013800
vn -0.999905 0.000000 -0.013800
vn -0.999905 0.000000 -0.013800
vn 0.000000 0.000000 1.000000
vn 0.000000 0.000000 1.000000
vn 0.000000 0.000000 1.000000
vn 0.000000 0.000000 1.000000
vn 0.000000 0.000000 1.000000
vn 0.000000 0.000000 1.000000
vn 0.000000 0.000000 1.000000
vn 0.000000 0.000000 1.000000
vn 0.000000 0.000000 1.000000
vn 0.000000 0.000000 1.000000
vn 0.000000 0.000000 1.000000
vn 0.000000 0.000000 1.000000
vn 0.000000 0.000000 1.000000
vn 0.000000 0.000000 1.000000
vn 0.000000 0.000000 1.000000
vn 0.000000 0.000000 1.000000
vn 0.000000 0.000000 1.000000
vn 0.000000 0.000000 1.000000
vn 0.000000 0.000000 1.000000
vn 0.000000 0.000000 1.000000
s 1
g Mesh
usemtl lambert2SG
f 1/1/1 5/2/2 3/4/3
f 3/4/3 5/2/2 7/3/4
s 2
f 8/5/5 7/6/6 6/7/7
f 6/7/7 7/6/6 5/2/8
s 3
f 6/7/9 2/8/10 8/10/11
f 8/10/11 2/8/10 4/9/12
s 4
f 2/8/13 1/1/14 4/12/15
f 4/12/15 1/1/14 3/11/16
s 5
f 6/7/17 5/2/18 2/8/19
f 2/8/19 5/2/18 1/1/20
s 6
f 9/13/21 11/14/22 13/16/23
f 13/16/23 11/14/22 15/15/24
s 7
f 16/17/25 14/18/26 15/19/27
f 15/19/27 14/18/26 13/16/28
s 8
f 14/18/29 16/20/30 10/22/31
f 10/22/31 16/20/30 12/21/32
s 9
f 10/22/33 12/23/34 9/13/35
f 9/13/35 12/23/34 11/24/36
s 10
f 14/18/37 10/22/38 13/16/39
f 13/16/39 10/22/38 9/13/40
s 11
f 7/6/41 8/5/42 15/19/43
f 15/19/43 8/5/42 16/17/44
s 12
f 4/12/45 3/11/46 12/23/47
f 12/23/47 3/11/46 11/24/48
s 13
f 3/4/49 7/3/50 11/14/51
f 11/14/51 7/3/50 15/15/52
s 14
f 8/10/53 4/9/54 16/20/55
f 16/20/55 4/9/54 12/21/56
s 15
f 17/25/57 21/26/58 19/28/59
f 19/28/59 21/26/58 23/27/60
s 16
f 24/29/61 23/30/62 22/31/63
f 22/31/63 23/30/62 21/26/64
s 17
f 22/31/65 18/32/66 24/34/67
f 24/34/67 18/32/66 20/33/68
s 18
f 18/32/69 17/25/70 20/36/71
f 20/36/71 17/25/70 19/35/72
s 19
f 22/31/73 21/26/74 18/32/75
f 18/32/75 21/26/74 17/25/76
s 20
f 25/37/77 27/38/78 29/40/79
f 29/40/79 27/38/78 31/39/80
s 21
f 32/41/81 30/42/82 31/43/83
f 31/43/83 30/42/82 29/40/84
s 22
f 30/42/85 32/44/86 26/46/87
f 26/46/87 32/44/86 28/45/88
s 23
f 26/46/89 28/47/90 25/37/91
f 25/37/91 28/47/90 27/48/92
s 24
f 30/42/93 26/46/94 29/40/95
f 29/40/95 26/46/94 25/37/96
s 25
f 23/30/97 24/29/98 31/43/99
f 31/43/99 24/29/98 32/41/100
s 26
f 20/36/101 19/35/102 28/47/103
f 28/47/103 19/35/102 27/48/104
s 27
f 19/28/105 23/27/106 27/38/107
f 27/38/107 23/27/106 31/39/108
s 28
f 24/34/109 20/33/110 32/44/111
f 32/44/111 20/33/110 28/45/112
s 29
f 33/49/113 37/50/114 35/52/115
f 35/52/115 37/50/114 39/51/116
s 30
f 40/53/117 39/54/118 38/55/119
f 38/55/119 39/54/118 37/50/120
s 31
f 38/55/121 34/56/122 40/58/123
f 40/58/123 34/56/122 36/57/124
s 32
f 34/56/125 33/49/126 36/60/127
f 36/60/127 33/49/126 35/59/128
s 33
f 38/55/129 37/50/130 34/56/131
f 34/56/131 37/50/130 33/49/132
s 34
f 41/61/133 43/62/134 45/64/135
f 45/64/135 43/62/134 47/63/136
s 35
f 48/65/137 46/66/138 47/67/139
f 47/67/139 46/66/138 45/64/140
s 36
f 46/66/141 48/68/142 42/70/143
f 42/70/143 48/68/142 44/69/144
s 37
f 42/70/145 44/71/146 41/61/147
f 41/61/147 44/71/146 43/72/148
s 38
f 46/66/149 42/70/150 45/64/151
f 45/64/151 42/70/150 41/61/152
s 39
f 39/54/153 40/53/154 47/67/155
f 47/67/155 40/53/154 48/65/156
s 40
f 36/60/157 35/59/158 44/71/159
f 44/71/159 35/59/158 43/72/160
s 41
f 35/52/161 39/51/162 43/62/163
f 43/62/163 39/51/162 47/63/164
s 42
f 40/58/165 36/57/166 48/68/167
f 48/68/167 36/57/166 44/69/168
s 43
f 49/73/169 53/74/170 51/76/171
f 51/76/171 53/74/170 55/75/172
s 44
f 56/77/173 55/78/174 54/79/175
f 54/79/175 55/78/174 53/74/176
s 45
f 54/79/177 50/80/178 56/82/179
f 56/82/179 50/80/178 52/81/180
s 46
f 50/80/181 49/73/182 52/84/183
f 52/84/183 49/73/182 51/83/184
s 47
f 54/79/185 53/74/186 50/80/187
f 50/80/187 53/74/186 49/73/188
s 48
f 57/85/189 59/86/190 61/88/191
f 61/88/191 59/86/190 63/87/192
s 49
f 64/89/193 62/90/194 63/91/195
f 63/91/195 62/90/194 61/88/196
s 50
f 62/90/197 64/92/198 58/94/199
f 58/94/199 64/92/198 60/93/200
s 51
f 58/94/201 60/95/202 57/85/203
f 57/85/203 60/95/202 59/96/204
s 52
f 62/90/205 58/94/206 61/88/207
f 61/88/207 58/94/206 57/85/208
s 53
f 55/78/209 56/77/210 63/91/211
f 63/91/211 56/77/210 64/89/212
s 54
f 52/84/213 51/83/214 60/95/215
f 60/95/215 51/83/214 59/96/216
s 55
f 51/76/217 55/75/218 59/86/219
f 59/86/219 55/75/218 63/87/220
s 56
f 56/82/221 52/81/222 64/92/223
f 64/92/223 52/81/222 60/93/224
